<svg width="35" height="35" viewBox="0 0 35 35" fill="none" xmlns="http://www.w3.org/2000/svg">
<path d="M17.5 34.5833C8.06512 34.5833 0.416656 26.9349 0.416656 17.5C0.416656 8.06512 8.06512 0.416656 17.5 0.416656C26.9349 0.416656 34.5833 8.06512 34.5833 17.5C34.573 26.9306 26.9306 34.573 17.5 34.5833ZM3.83332 17.7938C3.91415 25.3126 10.0535 31.3538 17.5727 31.3136C25.0918 31.273 31.1659 25.1661 31.1659 17.6469C31.1659 10.1277 25.0918 4.02085 17.5727 3.98024C10.0535 3.94002 3.91415 9.9812 3.83332 17.5V17.7938ZM14.0833 25.1875V9.81249L24.3333 17.5L14.0833 25.1875Z" fill="#73B841"/>
</svg>
