<svg width="9" height="9" viewBox="0 0 9 9" fill="none" xmlns="http://www.w3.org/2000/svg">
<path d="M4.5 8.875C2.08375 8.875 0.125 6.91625 0.125 4.5C0.125 2.08375 2.08375 0.125 4.5 0.125C6.91625 0.125 8.875 2.08375 8.875 4.5C8.87224 6.9151 6.9151 8.87224 4.5 8.875ZM4.5 1.375C2.77411 1.375 1.375 2.77411 1.375 4.5C1.375 6.22589 2.77411 7.625 4.5 7.625C6.22589 7.625 7.625 6.22589 7.625 4.5C7.625 2.77411 6.22589 1.375 4.5 1.375ZM4.5 6.375C3.46447 6.375 2.625 5.53553 2.625 4.5C2.625 3.46447 3.46447 2.625 4.5 2.625C5.53553 2.625 6.375 3.46447 6.375 4.5C6.375 4.99728 6.17746 5.47419 5.82583 5.82583C5.47419 6.17746 4.99728 6.375 4.5 6.375Z" fill="#73B841"/>
</svg>
