<?xml version="1.0" standalone="no"?>
<!DOCTYPE svg PUBLIC "-//W3C//DTD SVG 20010904//EN"
 "http://www.w3.org/TR/2001/REC-SVG-20010904/DTD/svg10.dtd">
<svg version="1.0" xmlns="http://www.w3.org/2000/svg"
 width="512.000000pt" height="512.000000pt" viewBox="0 0 512.000000 512.000000"
 preserveAspectRatio="xMidYMid meet">

<g transform="translate(0.000000,512.000000) scale(0.100000,-0.100000)"
fill="#000000" stroke="none">
<path d="M190 5111 c-45 -14 -84 -39 -116 -73 -52 -55 -68 -95 -69 -173 0 -80
19 -128 72 -181 65 -65 79 -69 289 -72 l191 -3 222 -1111 223 -1111 -275 -276
c-251 -252 -279 -282 -310 -349 -99 -206 -60 -432 102 -591 l67 -66 -28 -80
c-104 -287 -24 -609 204 -820 341 -316 879 -257 1148 128 124 176 169 417 115
617 -8 30 -15 58 -15 63 0 4 248 7 550 7 303 0 550 -3 550 -7 0 -5 -7 -33 -15
-63 -54 -199 -9 -442 114 -617 310 -441 952 -441 1261 0 65 91 106 195 127
314 38 228 -36 473 -199 649 -85 93 -230 178 -367 217 l-76 22 -1540 3 -1539
3 254 254 255 255 1255 0 1255 0 50 24 c28 12 65 40 83 60 20 23 245 462 560
1092 l527 1055 0 72 c-1 104 -47 180 -140 230 l-40 22 -1927 3 -1928 2 -5 23
c-3 12 -19 89 -35 171 -33 162 -57 217 -113 260 -69 53 -95 56 -416 55 -163 0
-307 -4 -321 -8z m4250 -1021 c0 -6 -171 -352 -380 -770 l-380 -760 -1095 0
-1095 0 -5 23 c-26 107 -301 1508 -297 1512 10 10 3252 5 3252 -5z m-3055
-3089 c133 -62 188 -228 118 -353 -102 -181 -348 -180 -447 2 -52 96 -36 212
42 294 52 54 104 76 182 76 42 0 79 -7 105 -19z m2560 0 c133 -62 188 -228
118 -353 -102 -181 -348 -180 -447 2 -52 96 -36 212 42 294 52 54 104 76 182
76 42 0 79 -7 105 -19z"/>
</g>
</svg>
