<?xml version="1.0" standalone="no"?>
<!DOCTYPE svg PUBLIC "-//W3C//DTD SVG 20010904//EN"
 "http://www.w3.org/TR/2001/REC-SVG-20010904/DTD/svg10.dtd">
<svg version="1.0" xmlns="http://www.w3.org/2000/svg"
 width="512.000000pt" height="512.000000pt" viewBox="0 0 512.000000 512.000000"
 preserveAspectRatio="xMidYMid meet">

<g transform="translate(0.000000,512.000000) scale(0.100000,-0.100000)"
fill="#000000" stroke="none">
<path d="M885 5097 c-24 -20 -29 -40 -60 -222 -19 -110 -37 -215 -40 -232 l-6
-33 -140 0 c-167 0 -192 -9 -209 -71 -7 -27 -10 -157 -8 -384 l3 -343 24 -26
c23 -25 28 -26 175 -28 l151 -3 32 -270 c42 -355 42 -325 -9 -325 -24 0 -54
-6 -68 -13 -59 -30 -62 17 79 -1022 72 -525 136 -963 143 -974 16 -26 51 -41
93 -41 27 0 35 -4 35 -17 0 -55 113 -1013 122 -1037 23 -59 -38 -56 1357 -56
789 0 1289 4 1305 10 51 19 53 32 111 546 30 269 57 503 60 520 5 29 9 32 51
37 51 5 80 27 88 66 12 56 256 1862 256 1893 0 18 -4 38 -8 44 -18 27 -60 44
-105 44 l-48 0 6 33 c4 29 65 549 65 562 0 3 65 5 144 5 79 0 152 3 161 6 42
16 45 45 45 423 l0 360 -24 28 -24 28 -154 3 -154 3 -33 202 c-18 111 -37 218
-42 238 -19 75 129 69 -1703 69 l-1645 0 -26 -23z m3244 -289 c12 -79 25 -155
28 -170 l6 -28 -1607 0 -1606 0 5 23 c2 12 14 78 25 147 11 69 23 135 25 148
l5 22 1548 0 1548 0 23 -142z m391 -623 l0 -255 -1960 0 -1960 0 0 255 0 255
1960 0 1960 0 0 -255z m-357 -432 c2 -5 -11 -136 -29 -293 -18 -157 -33 -288
-34 -292 0 -5 -694 -8 -1543 -8 l-1542 0 -33 288 c-18 158 -32 293 -32 300 0
9 328 12 1604 12 883 0 1607 -3 1609 -7z m87 -767 c0 -1 -52 -382 -115 -846
-63 -464 -115 -847 -115 -851 0 -5 -655 -8 -1462 -7 l-1462 3 -113 825 c-62
454 -113 837 -113 853 l0 27 1690 0 c930 0 1690 -2 1690 -4z m-385 -1903 c-3
-16 -25 -208 -50 -428 -24 -220 -47 -419 -50 -442 l-6 -43 -1200 0 c-951 0
-1201 3 -1204 13 -4 11 -105 895 -105 917 0 7 473 10 1310 10 l1309 0 -4 -27z"/>
</g>
</svg>
